<?xml version="1.0" encoding="UTF-8" standalone="no"?>
<!-- Created with Inkscape (http://www.inkscape.org/) -->

<svg
   width="210mm"
   height="297mm"
   viewBox="0 0 210 297"
   version="1.1"
   id="svg1"
   inkscape:version="1.4.2 (f4327f4, 2025-05-13)"
   sodipodi:docname="forgorozsas csokor.svg"
   xmlns:inkscape="http://www.inkscape.org/namespaces/inkscape"
   xmlns:sodipodi="http://sodipodi.sourceforge.net/DTD/sodipodi-0.dtd"
   xmlns="http://www.w3.org/2000/svg"
   xmlns:svg="http://www.w3.org/2000/svg">
  <sodipodi:namedview
     id="namedview1"
     pagecolor="#ffffff"
     bordercolor="#000000"
     borderopacity="0.25"
     inkscape:showpageshadow="2"
     inkscape:pageopacity="0.0"
     inkscape:pagecheckerboard="0"
     inkscape:deskcolor="#d1d1d1"
     inkscape:document-units="mm"
     inkscape:zoom="0.68741605"
     inkscape:cx="362.95341"
     inkscape:cy="625.53093"
     inkscape:window-width="1920"
     inkscape:window-height="1130"
     inkscape:window-x="-11"
     inkscape:window-y="-11"
     inkscape:window-maximized="1"
     inkscape:current-layer="layer1" />
  <defs
     id="defs1" />
  <g
     inkscape:label="Réteg 1"
     inkscape:groupmode="layer"
     id="layer1">
    <path
       style="fill:#1c1079;stroke-width:0.310999"
       id="path17"
       d="m 154.48121,88.972066 c 0.10742,-0.06961 0.40307,-0.239636 0.47657,-0.366294 0.0911,-0.156949 0.0221,-0.338627 -0.13136,-0.425477 -0.73003,-0.413263 -1.45995,-0.836745 -2.23672,-1.153536 -0.19125,-0.078 -0.41302,-0.0075 -0.61953,-0.01132 -2.04586,0.09488 -3.6015,1.29952 -5.03547,2.641016 -1.83883,1.800222 -2.93901,4.113244 -3.67112,6.544627 -0.62112,2.482061 -0.22921,4.273678 0.81091,6.540288 0.63657,1.10111 1.29326,2.2615 2.29353,3.08246 1.3024,1.06892 2.91427,1.69255 4.39133,2.50319 1.85563,0.71921 3.80968,0.56127 5.71883,0.19027 2.03349,-0.4895 3.62344,-1.74725 5.01469,-3.24925 1.37207,-1.52751 2.13819,-3.44526 2.66821,-5.401701 0.37281,-1.627336 0.25514,-3.267657 -0.21964,-4.853956 -0.40504,-1.200015 -1.336,-2.06942 -2.15897,-2.98931 -0.63839,-0.757798 -1.38306,-1.415701 -2.1996,-1.973789 -1.88892,-0.984247 -3.72946,-2.546572 -5.91708,-2.905911 -0.15784,0.01804 -1.56558,-0.05895 -1.38753,0.336315 0.59669,1.324649 0.57464,0.269727 0.54268,1.054044 0,0 0.0661,0.0451 0.0661,0.0451 v 0 c 1.34395,0.248904 -0.13421,-0.07539 1.91345,0.690002 0.6242,0.23332 1.25375,0.07167 1.89491,0.170428 1.53035,0.376569 5.01008,2.43009 -0.65573,-0.770755 0.83731,0.511554 1.59525,1.146908 2.24647,1.8825 0.80561,0.909487 1.76199,1.733304 2.25734,2.864583 0.55085,1.515163 0.70092,3.11654 0.39328,4.708229 -0.42872,1.923911 -1.15772,3.802991 -2.45678,5.313961 -1.34061,1.45084 -2.82817,2.67764 -4.80866,3.11788 -1.86543,0.32974 -3.75264,0.44829 -5.5388,-0.31641 0.68837,0.42525 1.38432,0.83847 2.06511,1.27576 0.24224,0.15559 -0.51433,-0.2634 -0.7489,-0.43034 -1.06865,-0.76054 -1.75891,-1.92784 -2.44406,-3.0131 -1.10412,-2.16545 -1.61217,-3.98167 -1.08757,-6.423978 0.65259,-2.409086 1.64505,-4.698701 3.39894,-6.525786 1.28798,-1.279337 2.68248,-2.458019 4.54168,-2.736988 1.09173,-0.04277 0.51004,0.07369 -0.97176,-0.974791 -0.12318,-0.08716 0.38676,0.110411 0.58572,0.411517 0.16882,0.25549 0.13564,0.372851 0.14768,0.659789 z" />
    <path
       style="fill:#1c1079;stroke-width:0.310999"
       id="path18"
       d="m 158.12322,89.894528 c -0.72053,-0.669634 -1.09717,-1.567498 -1.4024,-2.480665 -0.51829,-1.69795 -0.16766,-3.338226 0.38611,-4.97338 1.0695,-2.665617 2.9505,-4.077714 5.34937,-5.49619 2.40296,-1.273215 5.0203,-2.205278 7.77692,-2.09188 0.52577,0.02162 1.04642,0.112297 1.56962,0.168444 1.37684,0.317614 1.66984,0.315748 2.96494,0.889878 0.47294,0.209659 1.70345,1.115238 1.37878,0.712473 -0.34633,-0.429633 -1.08086,-1.210813 -1.44937,-0.800047 -0.36023,0.401532 0.87576,0.631949 1.28724,0.980768 0.41738,0.353817 0.79733,0.749549 1.196,1.124323 1.80355,1.945701 3.26293,4.240474 4.07627,6.779744 0.15174,0.473737 0.25008,0.962949 0.37512,1.444421 0.57079,3.269623 0.0405,5.361348 -1.41281,8.272156 -1.29289,2.388785 -3.05155,4.461769 -4.88903,6.442907 -1.52745,1.52003 -3.35376,2.67957 -5.21002,3.75143 -1.45846,0.77474 -3.01927,1.30683 -4.58796,1.80378 -1.37978,0.35457 -2.77218,0.67482 -4.1832,0.87731 -0.99744,0.11781 -2.00279,0.16508 -3.00681,0.16249 -0.73104,0.0389 -1.47458,-0.0784 -2.19554,0.0621 -0.4821,0.20465 -0.92776,0.0878 -1.4177,0.0168 -0.13553,-0.0664 -0.3395,-0.006 -0.47327,-0.0736 -0.0418,-0.0212 -0.14356,-0.11878 -0.10264,-0.096 1.02027,0.56863 4.16677,2.05804 3.04419,1.73539 -1.20527,-0.34641 -2.19929,-1.20574 -3.29894,-1.8086 -0.0371,0.0119 -0.16798,0.0447 -0.19923,0.086 -0.99468,1.31577 2.01851,2.37955 3.36395,2.05879 1.01828,-0.59493 2.04961,-1.175 3.00469,-1.8679 1.39737,-1.13053 2.57108,-2.50015 3.62697,-3.94667 0.8843,-1.20014 1.42199,-2.55291 1.69832,-4.006799 0.24957,-1.36 0.0297,-2.701165 -0.38471,-4.000772 -0.4706,-1.290508 -1.2253,-2.438252 -1.99724,-3.563559 -0.83558,-0.992878 -1.64293,-2.0163 -2.55552,-2.941341 -1.52844,-1.672768 -3.4079,-2.543405 -5.39304,-3.696819 -0.43127,-0.234517 -0.22265,-0.121637 -0.62577,-0.338807 -0.0803,-0.04338 -0.3199,-0.175633 -0.24081,-0.130152 5.31875,3.058338 3.61195,2.32014 2.71952,1.486644 -0.67191,-0.477197 -3.27738,-1.673466 -1.72054,-0.560739 0,0 0.14881,0.06578 0.14881,0.06578 v 0 c 1.27804,0.222432 -1.17199,-0.459737 -1.80114,-0.946187 0.87999,1.501669 2.94015,1.820823 4.3729,2.728209 -5.59552,-3.277405 -1.85397,-1.24083 -0.81304,0.0089 0.95131,0.885328 1.71394,1.934168 2.59767,2.883207 0.7722,1.100376 1.53594,2.216983 2.04071,3.471119 0.43653,1.23776 0.69034,2.523794 0.46635,3.837702 -0.24971,1.410499 -0.74292,2.713114 -1.5791,3.890314 -1.02592,1.42267 -2.17102,2.76638 -3.56552,3.84389 -0.95766,0.63566 -1.96276,1.25287 -3.02351,1.69564 -1.3966,0.34754 -0.0394,-0.0419 2.94655,1.78756 0.0639,0.0391 -0.13548,0.11388 -0.24024,0.34653 -0.0146,0.0324 0.13031,0.004 0.0929,0.0523 -1.02873,-0.58599 -4.10562,-2.36 -3.08619,-1.75797 2.11404,1.24844 2.32567,1.7877 3.93897,1.97621 0.50819,0.0743 0.98044,0.0421 1.47596,-0.10453 0.71865,-0.0582 1.44207,-0.002 2.16236,-0.0292 1.00355,-0.034 2.00928,-0.0608 3.00234,-0.22749 1.41509,-0.23202 2.81963,-0.55175 4.20061,-0.93486 1.57895,-0.51105 3.14035,-1.08118 4.59361,-1.89507 1.86872,-1.1082 3.70841,-2.29143 5.22263,-3.86987 1.82824,-2.03095 3.59798,-4.127543 4.89031,-6.553373 0.22538,-0.443555 0.47547,-0.875395 0.67613,-1.330666 1.00731,-2.285468 1.28211,-4.712152 0.83497,-7.169041 -0.12063,-0.494276 -0.21058,-0.997064 -0.36188,-1.482826 -0.81096,-2.603585 -2.31761,-4.955429 -4.13037,-6.96794 -2.41472,-2.344777 -3.20488,-2.681163 -6.59986,-4.561572 -1.34107,-0.742794 -2.79053,-1.223656 -4.30933,-1.429494 -0.52139,-0.0381 -1.0414,-0.111675 -1.56418,-0.114305 -2.75641,-0.01386 -5.34598,1.006539 -7.73173,2.301663 -2.38291,1.488755 -4.33606,3.009736 -5.36297,5.722155 -0.52445,1.744501 -0.84575,3.490182 -0.20494,5.255397 0.39818,1.073343 0.97193,2.083602 1.86847,2.822051 z" />
    <path
       style="fill:#1c1079;stroke-width:0.310999"
       id="path19"
       d="m 185.38526,94.643756 c 0.98452,-1.000114 2.44354,-1.286719 3.77041,-1.534234 0.78265,-0.04364 1.05272,-0.112241 1.82171,0.05227 0.29327,0.06274 1.10478,0.440512 0.85841,0.269507 -3.72749,-2.587157 -1.34572,-0.545026 -1.01355,-0.145267 0.25303,0.304504 0.45504,0.64801 0.68256,0.972013 1.35559,2.398996 2.12779,5.063056 2.48615,7.782155 0.17656,2.82683 -0.89538,5.1921 -2.3928,7.51131 -1.80993,2.6018 -4.52478,4.15351 -7.34962,5.42462 -2.3327,1.13661 -4.87971,1.43321 -7.41746,1.73561 -2.61692,0.33317 -5.24456,0.29015 -7.85915,-0.0119 -2.61801,-0.4245 -5.23481,-0.8617 -7.83512,-1.38493 -2.29437,-0.58217 -4.48095,-1.46701 -6.61398,-2.47789 -0.99816,-0.68822 -4.53291,-2.05489 0.57562,0.36125 0.23598,0.11161 -0.42146,-0.3088 -0.62118,-0.47691 -0.50174,-0.42231 -0.45367,-0.40895 -0.81649,-0.88743 -0.40914,-0.66502 -0.46349,-1.33786 -0.11691,-2.03047 0.2001,-0.33767 0.36618,-0.28991 0.69288,-0.20577 0.94336,0.24296 -0.28153,-0.14063 0.76734,0.20404 1.48968,0.60176 3.03644,1.00479 4.61421,1.29409 2.29017,0.42101 4.61055,0.26047 6.91268,0.0624 2.27562,-0.20325 4.45004,-0.85003 6.56284,-1.68699 2.08089,-0.77367 4.06541,-1.75691 5.98276,-2.87025 1.60896,-0.82075 2.88098,-2.09179 4.09881,-3.39647 1.02365,-1.06888 1.75849,-2.35544 2.45771,-3.647929 0.48654,-0.887008 0.98237,-1.772394 1.30527,-2.733789 0.14982,-0.546894 0.36319,-1.072415 0.54764,-1.608021 0.0224,-0.07266 0.2417,-0.970899 0.0563,-0.454549 -0.002,0.0382 -0.0428,0.104844 -0.006,0.114596 0.004,0.0011 0.36257,-0.175321 0.32736,-0.202395 -0.12475,-0.09594 -0.29125,-0.122635 -0.42516,-0.205322 -0.41361,-0.255408 -0.80971,-0.538142 -1.21457,-0.807212 0.0134,0.02585 0.0267,0.05172 0.0401,0.07759 0,0 0.0658,0.04549 0.0658,0.04549 v 0 c 0.0628,0.01402 0.12561,0.02806 0.18842,0.04209 -0.32245,-0.276955 -1.45498,-1.542984 -2.15247,-1.225622 -0.19279,0.252 -0.18044,0.468667 -0.2408,0.776402 -0.14419,0.551116 -0.37744,1.071234 -0.50234,1.626978 -0.28469,0.953558 -0.77286,1.819005 -1.22966,2.698877 -0.66034,1.274564 -1.38828,2.523756 -2.36921,3.582626 -1.21524,1.25638 -2.42599,2.52158 -4.00327,3.33337 -1.89777,1.10462 -3.86722,2.06559 -5.92244,2.84392 -2.08767,0.81312 -4.24318,1.42103 -6.4851,1.61499 -2.28862,0.20061 -4.5922,0.30303 -6.86185,-0.14906 -1.5995,-0.32794 -3.14902,-0.80185 -4.67525,-1.38098 -0.72752,-0.18135 -1.35161,-0.31439 -1.77682,0.42836 -0.34841,0.87131 -0.45363,1.50299 -0.0134,2.39104 0.38162,0.58894 0.83511,1.13179 1.44125,1.51204 1.82871,1.14721 3.65884,2.25805 5.60065,3.19104 2.13611,0.99142 4.33491,1.84653 6.63381,2.38475 2.60335,0.52081 5.22451,0.95649 7.84898,1.3561 2.62575,0.2735 5.26637,0.29508 7.88793,-0.0651 2.56341,-0.28793 5.09956,-0.69345 7.43825,-1.85732 2.82724,-1.36736 5.5545,-2.99845 7.38239,-5.6343 1.46614,-2.37521 2.6461,-4.8903 2.43091,-7.7581 -0.43245,-2.79699 -1.24577,-5.515575 -2.62099,-8.00455 -0.22491,-0.341331 -0.42445,-0.700815 -0.67475,-1.023998 -1.58319,-2.044176 -4.16387,-3.416231 -6.71999,-2.898172 -1.30285,0.337146 -2.78766,0.684538 -3.40531,2.018311 z" />
    <path
       style="fill:#1c1079;stroke-width:0.310999"
       id="path20"
       d="m 142.91362,103.56775 c -0.50541,1.21591 -0.68859,2.55339 -0.91059,3.84593 -0.28082,2.04738 -0.37399,4.11195 -0.21227,6.17155 0.11056,2.41112 0.87343,4.67884 1.9136,6.83283 1.54913,2.78527 3.5918,5.25302 5.66801,7.65596 2.75312,3.23608 5.99795,4.79262 9.68341,6.80141 2.66979,1.089 5.5583,1.44737 8.42255,1.41285 2.16327,-0.15149 4.31338,-0.60877 6.22211,-1.67639 0.38683,-0.21637 0.74883,-0.47442 1.12324,-0.71163 1.95491,-1.32713 3.50663,-3.074 4.91046,-4.95013 0.83886,-1.22555 1.50372,-2.5506 1.95456,-3.96443 0.27853,-0.96003 0.41607,-1.93804 0.31496,-2.93229 -0.40211,-1.91022 -2.69396,-2.99399 -4.45832,-3.30989 -1.16362,-0.13077 -2.33647,-0.0463 -3.50025,-0.1562 -1.37197,-0.0362 -2.74282,0.0687 -4.11284,-0.0187 -1.93299,-0.08 -3.80321,-0.6298 -5.66362,-1.11698 -2.12824,-0.58846 -4.19225,-1.38448 -6.22797,-2.23398 -1.78353,-0.71485 -3.55428,-1.44036 -5.28313,-2.28017 -1.04982,-0.57184 -4.11178,-2.11367 0.75417,0.47337 0.24911,0.13245 -0.47732,-0.301 -0.71331,-0.45562 -0.73916,-0.48428 -0.57246,-0.3766 -1.25957,-0.90932 -1.01397,-0.93167 -1.93344,-1.97413 -2.73565,-3.09318 -0.57146,-0.8627 -1.16101,-1.71445 -1.62257,-2.64247 -0.30243,-0.57254 -0.49847,-1.1898 -0.74155,-1.78724 -0.85804,-1.11798 -0.51045,-0.71446 -3.39137,-1.92446 -0.19213,-0.0807 0.21123,0.36076 0.33983,0.52472 0.62003,0.79055 0.7846,0.4157 0.47734,0.86968 0,0 0.15967,0.0963 0.15967,0.0963 v 0 c 0.0577,-0.0527 0.0964,-0.17311 0.17299,-0.158 1.1214,0.22116 5.24864,2.96508 -1.30324,-0.93385 -0.0453,-0.027 0.10274,0.0239 0.15411,0.0358 0.44693,0.43224 0.39372,1.27049 0.79452,1.75566 0.42367,0.97333 1.04548,1.83789 1.63601,2.71549 0.77179,1.16476 1.72084,2.19814 2.69895,3.19271 2.22459,1.83551 4.84217,3.15612 7.39095,4.48195 1.72821,0.82138 3.50246,1.52576 5.27421,2.24688 2.03177,0.82528 4.0882,1.59937 6.21085,2.16097 1.89211,0.50062 3.79297,1.03944 5.76295,1.09839 1.36044,0.0421 2.72064,-0.0586 4.08094,0.007 1.15872,0.0636 2.33468,-0.0172 3.47722,0.21955 1.36738,0.48132 0.4545,0.18658 -2.37601,-1.49521 -0.0926,-0.055 0.19363,0.0968 0.27967,0.16156 0.30365,0.22841 0.46031,0.54103 0.54432,0.90481 0.14668,0.94988 0.0634,1.89557 -0.19903,2.82275 -0.41855,1.38429 -1.0214,2.69988 -1.81659,3.91124 -1.34191,1.86229 -2.81696,3.60967 -4.74062,4.90668 -0.36751,0.22737 -0.72389,0.47378 -1.10251,0.68211 -1.86525,1.02635 -3.96523,1.48378 -6.07535,1.60599 -2.80173,0.0382 -5.61843,-0.33312 -8.215,-1.43757 0.44649,0.29279 1.07678,0.41354 1.33948,0.87838 0.23402,0.41409 -0.83535,-0.45595 -1.24105,-0.70422 -1.31035,-0.80186 -2.53061,-1.73217 -3.64268,-2.79263 -0.40222,-0.38355 -0.77871,-0.79319 -1.16807,-1.18979 -2.12586,-2.38156 -4.16053,-4.86395 -5.77947,-7.62531 -1.07344,-2.13713 -1.86525,-4.3868 -2.05391,-6.78995 -0.19507,-2.06235 -0.14334,-4.12576 0.0557,-6.18787 0.14017,-1.3125 0.31668,-2.63515 0.62022,-3.9189 z" />
    <path
       style="fill:#1c1079;stroke-width:0.310999"
       id="path21"
       d="m 143.65522,90.864313 c -1.51403,0.954064 -2.86147,2.147488 -4.21407,3.313171 -2.12572,1.968264 -3.81243,4.315304 -5.2855,6.793656 -1.62787,2.77092 -2.69906,5.77843 -3.59458,8.84903 -0.81353,2.97611 -1.25607,6.04063 -1.54466,9.10785 -0.25739,2.78045 -0.075,5.56476 0.365,8.31436 0.43685,2.37313 1.34431,4.58929 2.7794,6.53515 0.30454,0.41293 0.65027,0.79384 0.97541,1.19076 1.74997,1.83674 3.78884,2.94858 6.05885,4.14858 0.42942,0.22701 0.89114,0.39387 1.35744,0.52989 1.1341,0.3308 1.67777,0.2953 2.84098,0.36022 2.8782,-0.0669 5.10479,-1.329 7.32232,-3.03247 1.09461,-1.02744 2.3862,-2.33121 2.20565,-3.97692 -0.0308,-0.28092 -0.1341,-0.54907 -0.20115,-0.82361 -0.67639,-1.93079 -2.38065,-3.05726 -3.95639,-4.21767 -2.04939,-1.34061 -3.66747,-3.12995 -5.04637,-5.13126 -1.33319,-2.18217 -1.81811,-4.69691 -2.2028,-7.18745 -0.3787,-3.05005 -0.0544,-6.08989 0.45962,-9.09869 0.45113,-2.41701 1.24542,-4.73236 2.25776,-6.965477 0.70879,-1.588315 1.55656,-3.100564 2.58956,-4.498964 0.62731,-0.743368 1.2183,-1.510755 1.81527,-2.276647 0.27666,-0.289687 0.4449,-0.649923 0.63113,-0.997376 0.13645,-0.347229 -0.063,-0.598697 -0.29602,-0.840044 -3.16739,-1.884072 -2.55562,-2.384478 -4.63035,-0.955291 -1.30575,0.903324 -2.56998,1.860788 -3.81434,2.846046 -0.57674,0.557067 -1.39767,0.760735 -1.12904,1.725919 0.3512,1.261856 0.60379,0.437727 0.25623,1.220293 0,0 0.0688,0.04073 0.0688,0.04073 v 0 c 0.62768,-0.569526 0.0424,-0.175305 1.39418,-0.198033 0.89182,-0.015 0.85166,-0.05649 1.50967,-0.532773 0.22781,-0.164893 0.44671,-0.34176 0.67007,-0.512638 1.25751,-0.97817 2.53367,-1.931519 3.89045,-2.770058 0.30255,-0.201081 0.63639,-0.467273 0.99781,-0.559435 0.26789,-0.06831 0.41619,0.09255 0.36156,0.06033 -0.92103,-0.5432 -1.84863,-1.075179 -2.77294,-1.612767 0.23191,0.08067 0.207,0.09402 0.3377,0.265808 0.0667,0.08768 0.18367,0.0013 0.1567,0.137083 -0.11088,0.349563 -0.34503,0.65795 -0.56445,0.944618 -0.55622,0.793224 -1.13896,1.562786 -1.74101,2.323457 -1.02621,1.431846 -1.83842,2.988374 -2.56327,4.592545 -1.01197,2.270924 -1.77227,4.630894 -2.2074,7.084514 -0.53361,3.03081 -0.81857,6.10399 -0.52118,9.18028 0.35727,2.523 0.83065,5.0834 2.13219,7.31239 1.36766,2.03299 2.95843,3.88695 5.02849,5.24079 1.537,1.11913 3.24079,2.18306 4.00312,4.0059 0.0768,0.24873 0.18391,0.49007 0.23043,0.7462 0.2807,1.54529 -0.93868,2.80931 -1.94831,3.79178 -2.1381,1.69962 -4.32527,2.86929 -7.13026,2.89614 -1.16068,-0.0885 -1.63455,-0.0572 -2.75877,-0.41634 -0.45495,-0.14534 -1.13855,-0.99207 -1.3225,-0.55131 -0.18602,0.44574 1.11864,1.21887 1.23911,0.75113 0.25058,-0.97293 -2.73543,-0.7674 -2.33041,-1.91148 -0.32794,-0.38702 -0.67706,-0.75705 -0.98382,-1.16106 -1.44192,-1.89902 -2.38107,-4.08258 -2.82883,-6.42047 -0.45165,-2.73028 -0.6683,-5.49131 -0.41239,-8.257 0.25329,-3.06481 0.66614,-6.11902 1.43852,-9.10112 0.88845,-3.04537 1.93067,-6.05064 3.53395,-8.80561 1.40183,-2.478567 3.05399,-4.805924 5.08378,-6.816392 1.2669,-1.188122 2.587,-2.331003 3.77225,-3.600114 z" />
    <path
       style="fill:#1c1079;stroke-width:0.310999"
       id="path22"
       d="m 149.17081,86.005878 c -1.21635,-0.697077 -2.42596,-1.534872 -3.79254,-1.938832 -0.67952,-0.200864 -1.20382,-0.241988 -1.90719,-0.336209 -2.67156,-0.223031 -5.24698,0.519933 -7.75087,1.357757 -3.04617,1.086689 -5.91462,2.583849 -8.67135,4.261067 -1.9264,1.266857 -3.82048,2.601621 -5.53986,4.143303 -1.02158,0.915988 -1.56713,1.512393 -2.51911,2.493963 -2.38504,2.480148 -3.86379,5.345073 -5.07848,8.523703 -0.7948,2.49468 -1.34325,5.11925 -1.24571,7.75314 0.0176,0.47477 0.0882,0.94608 0.13224,1.41913 0.29088,2.50011 1.33808,4.7162 2.84932,6.6944 1.84912,1.9965 4.31951,3.50099 6.96951,4.15145 1.70657,0.2695 3.24711,-0.19993 4.65094,-1.1495 0.71677,-0.59312 1.5314,-1.28792 2.06009,-2.06549 0.27401,-0.40301 0.53936,-1.06215 0.73229,-1.49986 0.63424,-1.71605 0.83772,-3.53753 0.94086,-5.35147 0.0215,-2.12125 0.30734,-4.22956 0.69734,-6.31152 0.47801,-2.55098 1.56221,-4.90139 2.75688,-7.18379 1.2387,-2.182799 2.66522,-4.269279 4.29632,-6.177777 1.37911,-1.546899 3.0217,-2.824559 4.74414,-3.96417 1.32815,-0.856369 2.77241,-1.436288 4.26711,-1.919374 1.02172,-0.264147 2.02832,-0.59245 3.05849,-0.824831 0.52691,-0.164851 0.95583,-0.438894 1.04864,-1.007928 -0.009,-0.401484 -0.22311,-0.704008 -0.5726,-0.902583 -3.10659,-1.765112 -2.00549,-1.459754 -3.58615,-1.839579 -0.48822,0.03915 -2.01603,-0.616683 -2.3809,-0.349862 -0.0751,0.05488 -0.0231,0.184508 -0.0347,0.27676 0.53714,0.723715 0.73337,0.540615 0.25667,0.763151 0,0 0.0971,0.06536 0.0971,0.06536 v 0 c 0.66325,-0.196641 0.18296,-0.118022 1.39347,0.435819 1.04239,0.371587 2.13479,0.522669 3.21362,0.767107 1.31693,0.428501 0.45976,0.184068 -1.96747,-1.29009 -0.21545,-0.13085 1.10968,0.629391 0.66797,0.580914 0.11274,0.409789 -0.50553,0.577286 -0.77967,0.677106 -1.00816,0.276542 -2.00338,0.601265 -3.00804,0.890143 -1.48715,0.52171 -2.93352,1.138772 -4.24009,2.03608 -1.72512,1.18011 -3.35808,2.49673 -4.75615,4.059039 -1.58161,1.974553 -3.03418,4.057044 -4.26722,6.268767 -1.17864,2.316418 -2.35961,4.660788 -2.82681,7.242938 -0.39742,2.08986 -0.70377,4.20561 -0.73424,6.33655 -0.0935,1.78255 -0.2334,3.58108 -0.87319,5.26619 -0.21035,0.47957 -0.40248,0.98192 -0.69867,1.41945 -0.5255,0.77629 -1.26269,1.42569 -1.97606,2.0191 -1.37308,0.88174 -2.84676,1.30339 -4.4828,0.96836 -1.31688,-0.36738 -2.80093,-1.23152 0.17664,0.52571 0.26195,0.15459 -0.52187,-0.31356 -0.77092,-0.48818 -0.79955,-0.5606 -0.78108,-0.60719 -1.48193,-1.3152 -1.5967,-1.9598 -2.63952,-4.05403 -2.99243,-6.58643 -0.0486,-0.46463 -0.12081,-0.92739 -0.14584,-1.39388 -0.14,-2.60939 0.3304,-5.22793 1.14621,-7.69701 1.16754,-3.09414 2.68011,-6.043778 5.00941,-8.440178 2.3933,-2.521611 5.0309,-4.762023 7.99529,-6.595874 2.74423,-1.655953 5.58794,-3.152905 8.61563,-4.22877 2.44217,-0.820279 4.96008,-1.562917 7.56708,-1.348221 0.83315,0.106558 1.60906,0.21698 2.40148,0.501886 0.1774,0.06378 0.35327,0.132058 0.52688,0.205509 0.13934,0.05895 0.5363,0.27704 0.41151,0.191495 -0.37739,-0.258715 -0.78184,-0.47557 -1.17276,-0.713354 z" />
    <path
       style="fill:#1c1079;stroke-width:0.310999"
       id="path23"
       d="m 132.83856,85.436545 c -1.16841,-0.72934 0.6498,0.417563 1.37848,0.695555 0.13877,0.05294 -0.18907,-0.230669 -0.26434,-0.358711 -0.0875,-0.148889 -0.16952,-0.303655 -0.22184,-0.468252 -0.12257,-0.385559 -0.13685,-0.879049 -0.16852,-1.272447 -0.009,-2.013321 0.70601,-3.733176 1.75316,-5.412743 1.60635,-2.074045 3.68543,-3.74092 5.99424,-4.97918 0.4913,-0.263499 1.00598,-0.480891 1.50897,-0.721337 2.83317,-1.300244 5.8893,-1.701202 8.96312,-1.914382 2.61508,-0.114382 5.19012,0.312426 7.73646,0.848143 0.8416,0.194895 1.66084,0.451382 2.42392,0.860042 0.17083,0.09148 0.66977,0.389935 0.49932,0.297748 -2.59514,-1.403543 -3.14768,-2.169998 -2.35292,-1.160766 0.22598,0.735123 -0.74162,1.146955 -1.25398,1.416349 -1.55025,0.875927 -2.873,2.059127 -4.11087,3.325661 -1.47148,1.518971 -2.42002,3.352896 -3.02692,5.357172 -0.31014,1.328106 -0.17,2.654501 0.19984,3.949695 0.0855,0.49679 0.39318,0.960104 0.44096,1.463937 -0.36701,0.20098 -0.90115,0.0026 -1.29136,-0.0428 -1.15356,-0.218745 -2.18258,-0.784426 -3.20548,-1.33508 0.76367,0.437888 1.52104,0.886947 2.291,1.313664 0.20017,0.110935 -0.38733,-0.243861 -0.58091,-0.365932 -0.39103,-0.246575 -0.67384,-0.430866 -1.07408,-0.662477 -3.61862,-2.094031 -2.3008,-1.483328 -4.14661,-2.302375 -1.52981,-0.639513 -3.13754,-0.734499 -4.77048,-0.766505 -1.57315,-0.0062 -3.15413,0.154969 -4.68482,0.519453 -1.35794,0.271667 -2.66417,0.73328 -3.98877,1.126197 -2.08345,0.570701 -1.92482,-0.178912 1.35674,2.025216 -0.79732,-0.757571 -0.91634,-0.419883 -0.50142,-0.949934 0,0 -0.0663,-0.0447 -0.0663,-0.0447 v 0 c -1.02105,0.03401 -0.4009,0.100269 -1.78885,-0.548484 2.68358,2.031344 1.76795,2.151796 3.88362,1.485562 1.30502,-0.407485 2.59671,-0.861357 3.94198,-1.126996 1.51419,-0.319754 3.06443,-0.483661 4.61304,-0.467992 1.6201,0.03955 3.21031,0.211799 4.70402,0.894543 1.42315,0.694407 0.80629,0.411469 -1.76284,-1.080505 -0.18491,-0.107382 0.37096,0.212825 0.55443,0.32263 0.1844,0.11036 0.36776,0.222512 0.54911,0.337817 2.28183,1.45083 -2.8543,-1.59821 4.12147,2.420996 1.04966,0.546796 2.11641,1.090596 3.30405,1.254702 0.58771,0.07813 1.27047,0.201033 1.62014,-0.401516 0.1007,-0.557107 -0.34871,-1.086205 -0.45156,-1.622867 -0.42826,-1.239144 -0.61716,-2.50825 -0.36198,-3.81291 0.53156,-1.985386 1.43896,-3.766405 2.90552,-5.23893 1.22937,-1.254858 2.57253,-2.363901 4.1286,-3.196363 0.73196,-0.403487 1.67958,-0.902562 1.53696,-1.882976 -0.69611,-1.444252 -0.087,-0.334642 -3.3167,-2.290246 -0.86553,-0.524092 -1.87459,-0.75591 -2.84917,-0.973336 -2.52016,-0.488953 -5.07347,-0.830797 -7.64844,-0.679289 -3.08092,0.241993 -6.12481,0.713978 -8.94443,2.061493 -0.5064,0.249021 -1.02551,0.473692 -1.51919,0.747059 -2.32427,1.287042 -4.43108,3.002722 -6.07974,5.087035 -1.10877,1.828964 -1.76863,3.477686 -1.68697,5.65466 0.26571,2.375585 0.91256,2.895356 3.46012,3.990636 z" />
    <path
       style="fill:#1c1079;stroke-width:0.310999"
       id="path24"
       d="m 154.62392,133.77014 c 0.11746,1.35298 -0.052,2.71114 -0.15094,4.06103 -0.13426,2.12068 -0.40567,4.23062 -0.71943,6.3315 -0.37669,2.34639 -1.02006,4.63797 -1.67766,6.91808 -0.61612,2.01694 -1.3666,3.98686 -2.13854,5.94792 -0.8754,2.08356 -1.84617,4.12862 -2.90084,6.12724 -1.02378,2.12856 -2.35292,4.07226 -3.73059,5.98092 -1.48979,2.16268 -3.16594,4.18689 -4.74806,6.28149 -1.58428,2.22729 -3.19839,4.43071 -4.82251,6.6288 -1.68166,2.30381 -3.28565,4.66355 -4.8833,7.02608 -1.50567,2.23724 -2.8228,4.5865 -4.17212,6.91832 -1.41759,2.4652 -2.68811,5.00464 -3.90845,7.57181 -1.31114,2.56194 -2.30038,5.26417 -3.26536,7.96946 -0.98924,2.99791 -1.68606,6.08162 -2.32826,9.16931 -0.57013,2.57856 -0.95687,5.19318 -1.25434,7.81579 -0.22507,2.56572 -0.28001,5.14165 -0.29799,7.71581 0.009,2.41732 -0.0636,4.83609 0.0225,7.25232 0.11882,1.80579 0.17512,3.6142 0.38106,5.41279 0.14716,1.1431 0.22863,2.2923 0.27704,3.44329 0.0698,0.67357 -0.11289,1.32674 -0.22011,1.98489 0.067,0.51986 1.50678,1.22199 1.8271,1.2315 0,0 -0.074,-0.0569 -0.074,-0.0569 v 0 c -0.9245,-0.37541 1.00231,0.53248 1.11934,0.5502 0.0547,0.008 0.0746,-0.0818 0.11183,-0.12264 0.18296,-0.66432 0.32354,-1.35824 0.28602,-2.04912 -0.0495,-1.16863 -0.16571,-2.33232 -0.31619,-3.4922 -0.2268,-1.79757 -0.31855,-3.60504 -0.4379,-5.41259 -0.12199,-2.41447 -0.0431,-4.83481 -0.0592,-7.25157 0.0306,-2.56135 0.0408,-5.12786 0.29846,-7.67907 0.27199,-2.62116 0.6632,-5.23262 1.19226,-7.81449 0.6111,-3.07742 1.29194,-6.15231 2.32269,-9.12027 0.9552,-2.6993 1.96774,-5.37736 3.21728,-7.95759 1.22727,-2.55364 2.56322,-5.04965 3.94851,-7.52088 1.32724,-2.33545 2.65605,-4.66845 4.13927,-6.91018 1.58605,-2.36433 3.17543,-4.72702 4.86299,-7.02082 1.63314,-2.19115 3.2444,-4.39512 4.82489,-6.62488 1.57592,-2.10253 3.25117,-4.13027 4.74992,-6.28996 1.36459,-1.93537 2.73012,-3.87456 3.73225,-6.03238 1.03584,-2.02273 2.01079,-4.07785 2.88772,-6.17486 0.75868,-1.98564 1.4817,-3.98585 2.0389,-6.03917 0.60596,-2.32655 1.13772,-4.68029 1.50063,-7.05728 0.26136,-2.15131 0.51113,-4.31345 0.48327,-6.48412 0.001,-1.44703 0.0675,-2.9101 -0.27834,-4.32816 z" />
    <path
       style="fill:#1c1079;stroke-width:0.310999"
       id="path25"
       d="m 124.18956,253.50763 c -0.21965,-2.2273 -0.20807,-4.46127 -0.22036,-6.69707 0.0645,-2.75315 0.13796,-5.51382 0.49742,-8.24781 0.26862,-2.04308 0.39339,-2.41789 0.8314,-4.45363 1.01195,-3.98852 2.59083,-7.83709 4.80549,-11.31428 0.45086,-0.70791 0.96244,-1.37526 1.44366,-2.06289 2.01594,-2.47057 4.34657,-5.08275 7.55132,-5.94616 0.43123,-0.11618 0.88058,-0.14966 1.32087,-0.22449 -0.66938,-0.89182 2.82243,0.90082 2.22422,0.43904 -0.61511,-0.47481 -1.30207,-0.88967 -2.04386,-1.12109 -0.31758,-0.0991 0.51282,0.43423 0.70735,0.70412 0.52715,0.73138 0.55785,1.22446 0.77009,2.08344 0.33828,2.88297 -0.67325,5.64078 -1.72233,8.27484 -1.12089,2.79915 -2.71157,5.33645 -4.47035,7.76878 -1.43819,1.97017 -2.85744,3.95581 -4.37032,5.86975 -1.06457,1.31411 -2.35071,2.41865 -3.44669,3.70178 -0.88323,1.01216 -1.64933,2.10848 -2.56448,3.09202 -0.73989,0.70897 -1.42881,1.46413 -2.04449,2.28311 -0.52066,0.77161 -1.04886,1.53469 -1.52988,2.33253 -0.36711,0.58752 -0.60909,1.2187 -0.73837,1.89652 -0.002,0.0639 -0.0339,0.13461 -0.005,0.19178 0.0398,0.0794 0.11644,0.139 0.19337,0.18344 0.66872,0.38622 1.29597,0.88549 2.03652,1.10446 0.21604,0.0639 -0.28463,-0.37356 -0.31809,-0.59635 -0.0216,-0.14351 0.11212,-0.26771 0.16818,-0.40157 0,0 -0.0695,-0.0396 -0.0695,-0.0396 v 0 c -0.0722,0.12402 -0.0801,0.32749 -0.21654,0.37206 -0.21015,0.0687 -0.82379,-0.23224 -0.65762,-0.0864 0.5496,0.48234 1.23069,0.79177 1.86861,1.14921 0.0657,0.0368 0.15676,0.0562 0.2247,0.0237 0.0487,-0.0233 0.0325,-0.10299 0.0487,-0.15449 0.12133,-0.63407 0.30906,-1.2357 0.66546,-1.78309 0.48927,-0.77811 0.98583,-1.54992 1.51141,-2.30444 0.60373,-0.80974 1.3008,-1.54405 2.01649,-2.25503 0.90982,-0.98762 1.66226,-2.10382 2.53233,-3.12595 1.11425,-1.27178 2.37989,-2.40208 3.41875,-3.74193 1.4707,-1.9488 2.86655,-3.95139 4.30072,-5.92685 1.74105,-2.47682 3.34259,-5.04289 4.45174,-7.87545 1.07579,-2.68707 2.08562,-5.5244 1.80973,-8.46307 -0.18623,-0.89432 -0.22018,-1.45969 -0.70788,-2.25208 -0.18476,-0.30018 -0.39338,-0.60929 -0.68764,-0.80334 -1.07518,-0.70901 -3.1353,-2.21822 -4.8512,-2.41153 -0.39449,-0.0444 -0.79397,-1.1e-4 -1.19095,-1.6e-4 -0.43462,0.10151 -0.88018,0.16419 -1.30385,0.30453 -3.16707,1.04907 -5.40382,3.73429 -7.40296,6.25436 -0.47809,0.6985 -0.9829,1.37945 -1.43428,2.0955 -2.2153,3.51422 -3.82533,7.37376 -4.84042,11.39808 -0.16574,0.75917 -0.35739,1.51315 -0.49722,2.27751 -0.63798,3.48735 -0.64992,7.03759 -0.68789,10.56962 0.0362,2.29808 0.0863,4.60359 0.48583,6.87322 z" />
    <path
       style="fill:#1c1079;stroke-width:0.310999"
       id="path26"
       d="m 129.90138,206.90249 c 1.03463,-2.86789 2.90331,-5.34716 4.72657,-7.7541 3.18036,-3.8637 6.99886,-7.10032 11.03109,-10.03239 3.00366,-1.97766 6.22893,-4.08054 9.88713,-4.54698 0.5643,-0.0719 1.13707,-0.0388 1.70561,-0.0582 1.33205,0.22854 1.61846,0.18027 2.81999,0.74626 0.37591,0.17708 1.47684,0.73534 1.07423,0.6325 -0.66777,-0.17056 -1.20059,-0.80789 -1.88902,-0.84061 -0.31756,-0.0151 0.39919,0.49884 0.55295,0.7771 0.13989,0.25316 0.21449,0.53723 0.32174,0.80585 0.36117,2.11647 -1.00228,3.66963 -2.39647,5.06375 -2.1474,1.98014 -4.74483,3.34885 -7.37361,4.57082 -2.70651,1.11423 -5.4169,2.21581 -8.11567,3.34897 -2.14092,0.89693 -4.29083,1.76359 -6.49681,2.4868 -1.74072,0.60313 -3.50463,1.16229 -5.19932,1.88791 -0.87684,0.33237 -1.70689,0.76573 -2.56702,1.13619 -0.0332,0.13149 -0.66501,0.10206 -0.67563,0.18459 -0.005,0.0355 0.0336,0.0632 0.0504,0.0948 1.75358,0.92266 1.22493,1.32301 1.87345,0.66932 0,0 -0.0884,-0.0565 -0.0884,-0.0565 v 0 c -0.79089,0.35936 -0.38897,0.0648 0.89607,1.19658 0.21996,0.20774 0.62195,-0.0632 0.85252,-0.15986 0.82871,-0.39794 1.6474,-0.81735 2.49494,-1.17487 1.6765,-0.71859 3.4118,-1.29521 5.13206,-1.89864 2.19891,-0.73624 4.34398,-1.61533 6.47103,-2.5377 2.67704,-1.16382 5.38888,-2.24257 8.07237,-3.39061 2.65903,-1.24566 5.31161,-2.61542 7.46441,-4.649 1.47394,-1.4956 2.85984,-3.17175 2.53741,-5.41059 -0.89825,-2.47292 -1.47693,-2.24221 -4.34747,-4.06601 -1.18914,-0.75552 -2.51522,-1.09953 -3.9137,-1.17718 -0.56911,0.0403 -1.14421,0.0293 -1.70732,0.12102 -3.64032,0.593 -6.79803,2.73748 -9.78066,4.75907 -3.98596,3.00038 -7.78663,6.2777 -10.88996,10.21111 -1.53338,2.10196 -3.66504,4.91402 -4.35226,7.46189 -0.0543,0.20147 -0.0623,0.41266 -0.0934,0.619 z" />
    <path
       style="fill:#1c1079;stroke-width:0.310999"
       id="path27"
       d="m 132.10486,186.57591 c 1.60297,-0.78263 3.11626,-1.75015 4.62122,-2.70617 2.72041,-1.98137 5.72476,-3.49767 8.7253,-4.9982 3.32194,-1.7036 6.73909,-3.20272 10.15601,-4.70108 3.40611,-1.54934 6.90058,-2.89109 10.38839,-4.24218 2.90685,-1.1112 5.80019,-2.25685 8.69272,-3.40452 2.43074,-0.91064 4.85735,-1.84378 7.19924,-2.96614 2.28929,-1.0542 4.49917,-2.25624 6.5851,-3.67023 1.45687,-0.90434 2.70023,-2.04596 3.82284,-3.33051 0.8569,-0.88883 1.48032,-1.93523 2.08596,-3 0.18186,-0.5883 0.88839,-0.89301 0.87065,-1.52381 -0.42112,-0.50583 -1.05081,-0.75235 -1.62431,-1.04582 0,0 -0.0905,-0.0356 -0.0905,-0.0356 v 0 c -0.46258,-0.12601 -0.84468,-0.45525 -1.32259,-0.53655 -0.34402,0.42795 -0.70503,0.84984 -0.944,1.35184 -0.57668,1.05271 -1.19059,2.07769 -2.02333,2.95381 -1.07546,1.27564 -2.29339,2.38974 -3.69767,3.3025 -2.03866,1.44362 -4.24602,2.60042 -6.50832,3.65494 -2.31569,1.11015 -4.69092,2.08091 -7.08058,3.01942 -2.84907,1.16704 -5.6978,2.3348 -8.54756,3.49995 -3.43151,1.40078 -6.87168,2.78734 -10.22608,4.36712 -3.33276,1.55401 -6.63368,3.17058 -9.88034,4.89879 -2.92963,1.532 -5.77791,3.2244 -8.4048,5.24034 -1.38377,0.99869 -2.89781,1.84888 -4.14006,3.02291 z" />
    <path
       style="fill:#1c1079;stroke-width:0.310999"
       id="path28"
       d="m 172.93979,175.35187 c 0.0987,-1.57904 1.32941,-2.38685 2.60257,-3.08529 1.46339,-0.69246 3.03312,-1.16627 4.66624,-1.10806 0.36123,0.0129 0.72954,0.0177 1.07867,0.11137 0.3626,0.0973 0.68704,0.30288 1.03056,0.45432 -0.622,-0.32266 -1.18284,-0.81215 -1.866,-0.96798 -0.29092,-0.0664 0.43425,0.41963 0.58666,0.67617 0.70151,1.18077 0.1975,2.36358 -0.34391,3.4594 -1.01039,1.35178 -2.43466,2.63403 -4.17865,2.87219 -0.2864,0.0391 -0.57788,0.016 -0.86683,0.024 -0.72661,-0.14579 -0.93163,-0.14233 -1.6053,-0.45099 -0.25482,-0.11676 -0.98433,-0.53669 -0.73601,-0.40668 0.78266,0.40975 1.50756,0.94781 2.33915,1.24599 0.23723,0.085 -0.35062,-0.36698 -0.48398,-0.58081 -0.12839,-0.20587 -0.19575,-0.44401 -0.29362,-0.66601 -0.4886,-0.97147 0.33089,-1.91392 0.23379,-2.86933 -0.0366,-0.35999 -0.36616,-0.69148 -0.29177,-1.04559 0.0521,-0.24817 0.40506,-0.30519 0.60759,-0.45779 0,0 -0.27971,-0.18167 -0.27971,-0.18167 v 0 c -2.23133,0.98289 1.2207,-0.40891 -2.33217,0.33989 -1.20306,0.25355 -1.24166,1.83864 -1.10473,2.74615 0.78789,2.29557 1.54163,2.00703 4.33245,3.65464 0.74678,0.44088 1.58063,0.65095 2.4405,0.69626 0.29533,-0.0319 0.59522,-0.0349 0.88599,-0.0957 1.79793,-0.37566 3.22159,-1.7243 4.28483,-3.1436 0.6161,-1.21188 1.17002,-2.51041 0.44053,-3.84654 -0.77922,-1.42723 -3.33237,-2.39191 -4.20666,-2.91102 -0.32233,-0.0992 -0.63454,-0.24083 -0.96698,-0.29755 -1.94908,-0.33253 -3.90042,0.48443 -5.61406,1.29835 -1.33163,0.88188 -2.55882,1.85551 -2.23425,3.62657 z" />
    <path
       style="fill:#1c1079;stroke-width:0.310999"
       id="path29"
       d="m 193.61683,165.35933 c -0.8848,0.35687 -1.91615,0.72481 -2.86487,0.36755 -0.2082,-0.0784 -0.77172,-0.43533 -0.56293,-0.35853 0.67783,0.24936 1.32002,0.58656 1.98004,0.87983 5.3e-4,-0.19699 -0.0496,-0.40065 0.001,-0.59099 0.35572,-1.33331 1.82316,-2.27776 3.00258,-2.76827 0.37191,-0.15467 0.76683,-0.24685 1.15025,-0.37027 0.85074,-0.0934 1.32907,-0.24613 2.16,0.0382 0.30387,0.10398 1.14469,0.57022 0.83757,0.47626 -0.67472,-0.20641 -1.24804,-0.85562 -1.9526,-0.81737 -0.32401,0.0176 0.2913,0.587 0.36184,0.90374 0.0807,0.36231 0.0578,0.74012 0.0867,1.11018 -0.2364,2.04223 -1.27995,3.74433 -3.40831,4.21526 -0.32352,0.0716 -0.66067,0.0517 -0.991,0.0775 -0.27979,-0.0754 -1.07531,-0.39427 -0.83936,-0.22608 0.62355,0.44449 1.29241,0.87006 2.03024,1.07497 0.26292,0.073 -0.37592,-0.4056 -0.49826,-0.6495 -0.44195,-0.88106 -0.28886,-1.98765 -0.28227,-2.93098 -0.65543,-1.67098 -0.66347,-0.90887 -0.33877,-2.2612 0,0 -0.17244,-0.0981 -0.17244,-0.0981 v 0 c -0.83191,1.01779 -0.27958,0.57746 -1.79352,1.12868 -0.1275,0.3105 -0.30322,0.60534 -0.38252,0.9315 -0.69229,2.84737 2.24417,4.56483 4.8187,4.83202 0.33732,-0.0532 0.68437,-0.0631 1.01196,-0.15956 2.2005,-0.64775 3.24771,-2.41582 3.54931,-4.57568 -0.0133,-0.39506 0.0433,-1.82327 -0.35417,-2.19143 -0.95547,-0.88493 -2.1024,-1.54027 -3.19774,-2.24471 -0.94681,-0.60892 -2.01335,-0.49669 -3.05435,-0.26655 -0.38897,0.13825 -0.79001,0.24633 -1.16689,0.41474 -1.25617,0.56133 -2.80613,1.60221 -3.13563,3.05666 -0.0565,0.24925 0.0115,0.51101 0.0173,0.76652 0.85636,0.61694 1.68806,1.26965 2.56908,1.85083 0.14039,0.0926 0.31063,0.15185 0.47864,0.15966 0.75544,0.0351 1.52547,-0.58951 1.99061,-1.1152 z" />
    <path
       style="fill:#1c1079;stroke-width:0.310999"
       id="path30"
       d="m 200.87563,150.59728 c 0.13058,-1.42633 0.75907,-2.80625 1.69849,-3.88783 0.2632,-0.30302 0.57451,-0.56064 0.86177,-0.84097 1.17362,-0.8771 2.65119,-1.63138 4.15517,-1.15284 0.29529,0.094 1.1204,0.52332 0.82609,0.42636 -0.59156,-0.19486 -1.14892,-0.48129 -1.72337,-0.72194 0.12881,0.26734 0.30114,0.51779 0.38642,0.80202 0.38252,1.27485 -0.005,2.68329 -0.8807,3.65739 -0.24951,0.27768 -0.55523,0.49916 -0.83285,0.74875 -0.91688,0.56945 -1.87618,1.0459 -2.98622,0.77886 -0.30825,-0.0742 -1.15815,-0.5156 -0.87459,-0.3738 2.12587,1.06309 2.07806,1.28501 1.19686,0.008 -0.56179,-1.61682 -0.1549,-3.14318 0.57224,-4.62866 0.18148,-0.37074 0.44595,-0.70252 0.58646,-1.09065 0.13014,-0.35949 0.1441,-0.75095 0.21615,-1.12643 0.0602,-0.29338 0.12046,-0.58676 0.18069,-0.88013 0,0 -0.0677,-0.0427 -0.0677,-0.0427 v 0 c -0.42119,0.0739 -0.84239,0.14784 -1.26358,0.22176 -0.44396,0.16716 -0.94545,0.22631 -1.33187,0.50147 -0.35084,0.24983 -0.57195,0.6495 -0.7987,1.01568 -0.9059,1.46292 -1.18337,3.19195 -0.77107,4.85186 0.17479,0.29576 0.25417,0.6751 0.52437,0.88727 1.18434,0.93002 3.30919,2.70994 5.18748,2.34824 0.83279,-0.16037 1.32347,-0.54962 2.03528,-0.9804 0.2911,-0.26621 0.61288,-0.50234 0.87329,-0.79865 0.93221,-1.06074 1.33463,-2.55631 0.97527,-3.93583 -0.0819,-0.31456 -0.25229,-0.59916 -0.37844,-0.89873 -0.25396,-0.17463 -2.56494,-2.09869 -3.77541,-2.3454 -1.53612,-0.31307 -2.9474,0.56083 -4.08625,1.47389 -0.27641,0.30266 -0.5794,0.58304 -0.82923,0.90799 -0.94054,1.22337 -1.52921,2.77326 -1.22814,4.31653 z" />
    <path
       style="fill:#1c1079;stroke-width:0.310999"
       id="path31"
       d="m 194.19931,140.11794 c 0.45389,-0.90979 1.15027,-2.08566 1.91069,-2.74792 0.69815,-0.60802 1.33559,-0.80721 2.16726,-1.1668 0.96096,-0.19927 1.15815,-0.35109 2.1172,-0.13871 0.28674,0.0635 1.0773,0.46212 0.82234,0.31634 -2.94279,-1.68266 -1.66881,-1.13669 -1.41021,-0.21751 0.0668,0.23744 0.0386,0.4918 0.058,0.7377 -0.0833,0.26514 -0.11742,0.55107 -0.24982,0.79541 -0.70351,1.29838 -2.35892,2.06368 -3.77589,2.17786 -0.35527,0.0286 -0.71162,-0.0416 -1.06743,-0.0624 -0.28179,-0.13589 -1.13955,-0.51401 -0.84535,-0.40765 0.64018,0.23143 1.2057,0.81348 1.88578,0.78379 0.29547,-0.0129 -0.22582,-0.56028 -0.23363,-0.85592 -0.0328,-1.2399 0.74796,-2.24258 1.42423,-3.18671 0.21337,-0.28209 0.42673,-0.56417 0.6401,-0.84625 0.0312,-0.30383 -0.0549,-0.6446 0.0936,-0.91148 0.11672,-0.20973 0.41243,-0.24565 0.61865,-0.36848 0,0 -0.26069,-0.17651 -0.26069,-0.17651 v 0 c -0.31319,0.0558 -0.62254,0.14117 -0.93958,0.16738 -2.11466,0.1748 -0.99901,-0.36494 -2.5027,0.74182 -0.75517,0.98196 -1.58136,2.02876 -1.652,3.33546 -0.0179,0.33037 -0.0708,0.74776 0.16629,0.97854 1.84776,1.79869 2.19667,1.82763 3.87115,2.40043 0.36129,-0.004 0.72587,0.037 1.08387,-0.0117 1.50014,-0.20434 3.17614,-1.04774 3.9425,-2.41039 0.15306,-0.27214 0.20301,-0.59055 0.30452,-0.88582 -0.0115,-0.28051 0.0239,-0.56693 -0.0345,-0.84153 -0.35601,-1.67346 -3.26305,-3.04699 -4.97137,-2.73286 -0.35967,0.0661 -0.69859,0.21657 -1.04788,0.32486 -0.35687,0.19433 -0.7371,0.35086 -1.07062,0.583 -1.31557,0.91563 -2.22874,2.41762 -2.14621,4.0417 z" />
    <path
       style="fill:#1c1079;stroke-width:0.310999"
       id="path32"
       d="m 182.86596,148.17527 c -0.34475,-1.22084 -0.26706,-2.57329 0.41259,-3.67945 0.19042,-0.30993 0.45898,-0.56444 0.68846,-0.84666 0.91835,-0.71639 1.92326,-1.22285 3.12732,-1.06956 0.36527,0.0465 1.32203,0.57399 1.05815,0.31718 -0.4374,-0.4257 -1.00997,-0.79068 -1.61633,-0.86042 -0.32299,-0.0371 0.41834,0.49779 0.62752,0.74669 0.0986,0.33764 0.25607,0.66343 0.29576,1.01293 0.18164,1.59961 -0.73806,3.22348 -2.11924,4.00441 -0.35839,0.20264 -0.76776,0.2976 -1.15164,0.4464 0.62801,1.03529 -2.88532,-0.74341 -2.26653,-0.29866 0.52309,0.37598 1.10081,0.84981 1.74473,0.83111 0.33788,-0.01 -0.41354,-0.548 -0.52685,-0.86646 -0.31837,-0.89477 -0.10792,-1.24963 0.0839,-2.13787 0.49884,-0.96789 0.50219,-1.13404 1.239,-1.93869 0.22902,-0.25011 0.63864,-0.36761 0.74932,-0.68817 0.10987,-0.31825 -0.11191,-0.66399 -0.16787,-0.99598 0,0 -0.0928,-0.0633 -0.0928,-0.0633 v 0 c -0.69687,-0.13859 -1.38236,-0.4726 -2.09059,-0.41577 -0.79955,0.0642 -2.00132,2.04682 -2.28745,2.67394 -0.24039,0.96064 -0.46674,1.33203 -0.20413,2.32281 0.48006,1.81117 2.31526,2.2684 3.93789,3.11151 0.34175,0.17757 0.74129,0.23849 1.12583,0.25956 0.41688,0.0228 0.83053,-0.0864 1.24578,-0.12963 0.39778,-0.17389 0.82394,-0.2936 1.19332,-0.52168 1.43843,-0.88816 2.40226,-2.6 2.28592,-4.30253 -0.0263,-0.38408 -0.16768,-0.75147 -0.25153,-1.12721 -1.28585,-1.78606 -0.68329,-1.20158 -4.03615,-2.80498 -0.97897,-0.46816 -2.29208,-0.0826 -3.13953,0.46576 -0.32993,0.21348 -0.60046,0.50709 -0.90069,0.76063 -0.21808,0.31499 -0.48104,0.60323 -0.65422,0.94497 -0.71422,1.40934 -0.52018,3.1126 0.4707,4.31565 z" />
    <path
       style="fill:#1c1079;stroke-width:0.310999"
       id="path33"
       d="m 170.51686,156.99451 c 0.55416,0.30994 1.08035,0.67628 1.66248,0.92982 0.1396,0.0608 -0.23088,-0.20669 -0.30612,-0.33908 -0.0892,-0.15698 -0.15929,-0.33215 -0.17746,-0.5118 -0.0938,-0.92722 0.5506,-1.63974 1.06378,-2.31788 1.10242,-0.96921 2.53605,-1.5639 4.01159,-1.12114 0.32086,0.0963 1.21694,0.5605 0.90913,0.42834 -0.62009,-0.26623 -1.2308,-0.55378 -1.8462,-0.83066 1.05272,1.49767 0.98095,3.26796 -0.217,4.67885 -0.2605,0.3068 -0.59047,0.54708 -0.8857,0.82061 -1.23643,0.82695 -2.83883,1.65085 -4.38215,1.17173 -0.32687,-0.10147 -1.23081,-0.58628 -0.90245,-0.48975 0.65034,0.19118 1.25287,0.51794 1.87931,0.77692 -0.13484,-0.31799 -0.32967,-0.61678 -0.40452,-0.95397 -0.39991,-1.8016 0.65684,-3.63186 1.88059,-4.85833 0.34707,-0.34784 0.75445,-0.62977 1.13168,-0.94465 3.51038,-2.17641 -0.67818,0.6672 1.54323,-1.49417 0.18917,-0.18406 0.4815,-0.21633 0.72225,-0.32449 0,0 -0.2949,-0.20815 -0.2949,-0.20815 v 0 c -0.42716,-0.0162 -0.85437,-0.031 -1.28148,-0.0486 -2.34731,-0.0967 -1.29451,-0.35405 -3.14773,0.5378 -0.39199,0.32568 -0.81325,0.61905 -1.17597,0.97705 -1.31605,1.29892 -2.41657,3.15791 -2.12686,5.08503 0.0555,0.36908 0.23547,0.70834 0.3532,1.06252 0.097,0.0673 2.97262,2.41231 4.27181,2.68864 1.6143,0.34336 3.22101,-0.52869 4.4935,-1.39735 0.30975,-0.29235 0.65336,-0.55256 0.92925,-0.87705 1.28894,-1.51601 1.40558,-3.37823 0.39302,-5.06356 -0.5555,-0.36497 -2.77182,-2.18999 -4.16928,-2.46313 -1.53595,-0.30021 -2.95533,0.4125 -4.01963,1.46367 -0.69032,0.95333 -1.50164,2.03458 -0.84079,3.24549 0.47838,0.87656 2.48836,1.65942 2.76606,1.8184 z" />
    <path
       style="fill:#1c1079;stroke-width:0.310999"
       id="path34"
       d="m 131.82938,179.62237 c 0.42823,-1.27891 0.13057,-2.61582 -0.17819,-3.88599 -0.55166,-2.05516 -1.55477,-3.95324 -2.46327,-5.86759 -1.34198,-2.7442 -2.57439,-5.53703 -3.57699,-8.42287 -0.79703,-2.43639 -1.49232,-4.91763 -1.77349,-7.4731 -0.18561,-1.68694 -0.14018,-2.13964 -0.14011,-3.82124 0.12707,-2.86995 0.89762,-5.70319 2.81346,-7.91486 0.32449,-0.37459 0.70877,-0.69288 1.06315,-1.03932 1.81942,-1.46672 4.0765,-2.0397 6.35202,-1.38305 0.42298,0.12206 0.81914,0.32289 1.22871,0.48433 0.39638,0.21071 1.58903,0.8361 1.18914,0.63213 -0.63824,-0.32556 -1.19304,-0.91031 -1.90426,-0.9969 -0.45269,-0.0551 0.71007,0.57432 1.03782,0.89141 0.89595,0.86684 1.55194,1.8413 2.16905,2.91228 1.19739,2.36493 0.98986,4.56735 0.46446,7.07165 -0.75178,2.8253 -2.10505,5.4342 -3.25557,8.10778 -0.85081,2.19504 -1.70467,4.38971 -2.40138,6.63909 -0.5685,1.79575 -1.22873,3.56032 -1.83777,5.34261 -0.43722,1.35873 -1.01514,2.66928 -1.41382,4.03995 -0.22092,0.9889 -0.44973,1.97628 -0.66249,2.96716 -0.0202,0.10476 -0.1756,0.97127 -0.0966,1.0158 0.18048,0.10169 0.39278,0.13222 0.58603,0.20685 0.38206,0.14756 0.75968,0.30639 1.13953,0.45958 -0.0354,-0.15181 -0.0709,-0.30361 -0.10633,-0.45542 0,0 -0.16257,-0.0798 -0.16257,-0.0798 v 0 c 0.009,0.13906 0.0176,0.27812 0.0264,0.41718 0.65931,0.54061 1.02859,1.10112 1.85062,1.21127 0.11077,0.0148 0.14731,-0.89424 0.18424,-0.9482 0.17492,-0.99252 0.41386,-1.97182 0.60294,-2.96107 0.39056,-1.37109 0.93242,-2.68989 1.37921,-4.04294 0.56713,-1.80277 1.244,-3.56779 1.78625,-5.37851 0.68922,-2.24176 1.49493,-4.4446 2.33623,-6.63359 1.11154,-2.71573 2.48258,-5.33706 3.26148,-8.17983 0.60938,-2.62883 0.83663,-4.78919 -0.34584,-7.3124 -0.19552,-0.34708 -0.36987,-0.70697 -0.58657,-1.04124 -1.88657,-2.9101 -4.89043,-4.63953 -8.00756,-6.04753 -0.41896,-0.14139 -0.82677,-0.32156 -1.25688,-0.42415 -2.36589,-0.56433 -4.65579,0.15016 -6.48752,1.68996 -0.35656,0.36643 -0.74383,0.7053 -1.06968,1.09928 -1.89908,2.29607 -2.72044,5.20645 -2.84446,8.13815 0.002,1.65415 -0.0406,2.21603 0.138,3.87413 0.27663,2.56806 0.94967,5.07144 1.73765,7.52402 0.99091,2.91259 2.20094,5.74126 3.606,8.47958 0.97049,1.96923 2.03959,3.90213 2.7966,5.96622 0.46712,1.35531 0.81959,2.72941 0.98455,4.1566 z" />
    <path
       style="fill:#1c1079;stroke-width:0.310999"
       id="path35"
       d="m 115.71377,244.06744 c -0.29019,-5.6176 -1.46608,-11.16088 -2.65437,-16.64774 -0.72016,-3.34321 -1.8234,-6.56879 -3.28308,-9.65592 -1.2165,-2.55882 -2.90115,-4.83986 -4.5824,-7.10463 -1.60236,-2.13487 -3.20258,-4.27312 -4.68323,-6.49496 -1.405911,-2.03706 -2.692907,-4.14933 -4.010382,-6.24316 -1.278022,-2.11464 -2.582701,-4.21367 -3.816537,-6.35455 -1.264703,-2.16294 -2.416448,-4.38647 -3.440436,-6.67262 -0.999204,-2.17239 -1.710391,-4.44639 -2.384372,-6.73432 -0.602453,-2.16417 -0.988848,-4.37485 -1.349883,-6.5891 -0.203919,-0.58977 -0.07289,-1.25213 -0.256209,-1.84554 -0.273121,-0.88409 -0.806701,-1.47956 -1.338006,-2.2299 0,0 -0.0799,-0.0417 -0.0799,-0.0417 v 0 c -0.509215,0.12713 -1.311659,0.14136 -1.559203,0.77955 -0.122195,0.31503 0.09431,1.56035 0.129635,1.81826 0.355828,2.22875 0.735177,4.45287 1.337466,6.63126 0.674175,2.30367 1.370725,4.59703 2.379697,6.78262 1.01532,2.2975 2.170528,4.528 3.425002,6.7043 1.232715,2.15504 2.564125,4.25194 3.839821,6.38166 1.344637,2.09466 2.614015,4.23665 4.054272,6.26955 1.491406,2.26108 3.146335,4.40685 4.786875,6.56052 1.71194,2.2671 3.41659,4.55172 4.70676,7.09441 1.57154,3.11122 2.82646,6.35246 3.64063,9.75031 1.39629,5.51285 2.55491,11.09611 3.01594,16.77459 z" />
    <path
       style="fill:#1c1079;stroke-width:0.310999"
       id="path43"
       d="m 78.465679,159.86376 c -1.10141,-0.23416 -1.437,-0.20604 -2.461133,-0.9422 -0.266565,-0.19161 1.064964,0.66489 0.910595,0.37517 -0.266406,-0.5 -0.888246,-0.70623 -1.296355,-1.09919 -1.02848,-0.99031 -1.09587,-1.2298 -1.862521,-2.39473 -1.180407,-2.35074 -1.152697,-4.18377 -0.175382,-6.56774 0.80585,-1.53941 2.060128,-2.67662 3.675182,-3.29895 1.285012,-0.40541 2.500045,-0.10582 3.723251,0.32327 1.05456,0.502 3.214783,1.67855 -1.451338,-0.8933 -0.156559,-0.0863 0.30034,0.19432 0.444717,0.29974 0.415997,0.30374 0.434618,0.34741 0.808564,0.70964 0.866,0.8468 1.295845,1.97497 1.627098,3.11448 0.328184,1.10051 0.294404,2.21454 0.188399,3.34104 -0.06992,0.93347 -0.182666,1.86514 -0.471355,2.75859 -0.193164,0.60025 -0.443992,1.16647 -0.828789,1.66692 -0.389157,0.43666 -0.826378,0.82568 -1.238218,1.23978 -0.331822,0.31844 -0.739831,0.54453 -1.121558,0.79898 -0.281657,0.27219 -0.543145,0.44217 -0.923809,0.51853 -0.158565,0.0231 -0.278172,0.26374 -0.421502,0.30329 -0.08965,0.0247 -0.05199,-0.14651 0.0087,-0.11249 0.634958,0.3558 1.240798,0.76124 1.861196,1.14186 -0.224629,-0.17829 -0.44926,-0.35659 -0.673889,-0.53488 0,0 -0.209185,-0.0993 -0.209185,-0.0993 v 0 c -0.173334,0.001 -0.346667,0.002 -0.519999,0.003 0.755555,0.5546 1.403824,1.62665 2.338772,1.56084 0.199919,-0.0141 0.310181,-0.27461 0.518586,-0.26613 0.391464,-0.12691 0.685815,-0.34943 0.993714,-0.61744 0.386683,-0.27481 0.809704,-0.50956 1.13562,-0.8593 0.437018,-0.40766 0.868977,-0.82707 1.250643,-1.28726 0.42258,-0.52546 0.687354,-1.13563 0.873975,-1.7825 0.300286,-0.91682 0.407956,-1.88419 0.476115,-2.84311 0.10682,-1.16679 0.167497,-2.31305 -0.145455,-3.46087 -0.323321,-1.17196 -0.719405,-2.37141 -1.568302,-3.27416 -1.509223,-1.63556 -3.589057,-2.64184 -5.620631,-3.49818 -1.257771,-0.39509 -2.511348,-0.5509 -3.779284,-0.067 -1.625264,0.75799 -2.892295,1.96808 -3.667485,3.60056 -0.945555,2.51693 -0.966253,4.47156 0.262774,6.92929 0.280924,0.43176 0.528584,0.88709 0.842769,1.29528 1.637535,2.12751 3.86375,3.36639 6.183058,4.68945 0.442421,0.25238 0.907003,0.47941 1.396479,0.62028 0.31985,0.0921 0.664104,0.0455 0.996156,0.0683 z" />
    <path
       style="fill:#1c1079;stroke-width:0.310999"
       id="path44"
       d="m 78.941122,159.54454 c -1.074655,0.17372 -2.038665,-0.0727 -3.026878,-0.47687 -1.676739,-0.88017 0.832612,0.52734 1.280197,0.72962 0.207965,0.094 -0.363662,-0.27619 -0.537779,-0.42372 -0.599845,-0.50826 -1.144516,-1.06943 -1.680419,-1.64291 -1.167011,-1.31866 -2.344759,-2.62593 -3.385725,-4.04751 -1.304187,-1.78811 -2.016543,-3.87443 -2.579251,-5.99 -0.48574,-2.16706 -1.066159,-4.30479 -1.844487,-6.38491 -0.813011,-2.25001 -2.260642,-4.07703 -3.952851,-5.72495 -2.802617,-2.45672 -6.047166,-4.4098 -9.428027,-5.96069 -2.433939,-1.05872 -4.88935,-0.96509 -7.462915,-0.71161 -1.841761,0.0901 -3.606096,0.53446 -5.314809,1.20029 -0.294468,0.0284 -0.534824,0.32314 -0.815171,0.38626 -0.05284,0.0119 -0.116432,-0.1742 -0.06975,-0.14674 1.040906,0.61214 2.049928,1.27694 3.074893,1.91542 0.425137,-0.55963 1.289232,-0.7244 1.93385,-0.86603 1.646293,-0.31338 3.281404,-0.17325 4.883856,0.26864 -0.458589,-0.39636 2.145025,0.96339 1.629672,0.6792 -0.725681,-0.40017 -1.398037,-0.94994 -2.200444,-1.15704 -0.369168,-0.0953 0.561726,0.51725 0.817398,0.80008 0.66103,0.73125 0.818798,1.04788 1.345724,1.86595 1.037815,1.79106 1.120153,3.79078 1.016846,5.80033 -0.153188,2.00661 -0.448923,3.99723 -0.613264,6.00331 -0.196191,2.11658 -0.09403,4.22896 0.221171,6.32595 0.328988,2.15555 1.00943,4.21915 1.92061,6.1924 0.862587,1.72474 2.050084,3.24042 3.44343,4.56265 2.380996,2.08984 5.258036,3.55556 7.98004,5.12754 1.16446,0.56395 2.414746,1.06134 3.696832,1.28884 0.85175,0.15113 1.309447,0.12254 2.17355,0.13528 1.87639,0.0808 3.604355,-0.50808 5.332325,-1.14274 1.266169,-0.52581 2.467041,-1.28413 3.484612,-2.20383 0.919764,-0.8575 1.415013,-1.97776 1.818148,-3.14272 0.294955,-0.76818 0.579575,-1.53868 0.757325,-2.34294 -0.03924,-0.006 0.118981,-0.20297 0.05028,-0.25662 -0.38273,-0.29886 -1.487453,-0.91882 -1.77909,-1.08957 0,0 0.176628,0.13331 0.176628,0.13331 v 0 c -0.337516,-0.26492 -1.526083,-1.51314 -1.83469,-0.59774 -0.141914,0.79985 -0.423725,1.56036 -0.683024,2.32786 -0.363649,1.11183 -0.857036,2.1629 -1.734275,2.96725 -0.988756,0.89246 -2.128557,1.62494 -3.373255,2.10697 -1.678025,0.64451 -3.377761,1.15517 -5.203545,1.05701 -2.074481,-0.0831 -3.937656,-0.56824 -5.765141,-1.57363 0.764876,0.44441 1.525879,0.89555 2.294628,1.33322 0.290515,0.1654 -0.576998,-0.33802 -0.859779,-0.51631 -1.063763,-0.67072 -2.135595,-1.35203 -3.072596,-2.19539 -1.423299,-1.26763 -2.626532,-2.74755 -3.519993,-4.43893 -0.936741,-1.94103 -1.643941,-3.97115 -1.997093,-6.10538 -0.272696,-2.07445 -0.453348,-4.15654 -0.244494,-6.24864 0.139171,-2.01746 0.426321,-4.01736 0.57621,-6.03278 0.103156,-2.0806 -0.0034,-4.1681 -1.017127,-6.04433 -0.457179,-0.7456 -1.4028,-2.30461 -2.115489,-2.79565 -1.826985,-1.25877 -3.475967,-2.37189 -5.53955,-2.97881 -1.65323,-0.38327 -3.337298,-0.48608 -5.013322,-0.15131 -0.802135,0.20114 -1.72719,0.44526 -2.214909,1.17345 3.419112,2.34862 2.071457,2.52482 4.01679,1.56662 1.630185,-0.71844 3.361616,-1.06842 5.137298,-1.19517 2.540103,-0.22599 4.941774,-0.25259 7.320812,0.83216 0.402034,0.19251 1.541949,0.87065 1.206103,0.57755 -0.490974,-0.42848 -1.104651,-0.69448 -1.683358,-0.99406 -0.410922,-0.21272 0.792117,0.47894 1.178898,0.73292 0.633347,0.41589 1.472504,1.02268 2.073032,1.49774 0.313854,0.24827 0.615881,0.51115 0.923824,0.76672 1.722927,1.61759 3.260503,3.39477 4.111665,5.63759 0.822947,2.0777 1.464416,4.21078 1.945759,6.39446 0.566243,2.15359 1.316791,4.2868 2.604545,6.12508 1.039479,1.46615 2.255716,2.78769 3.460136,4.11958 1.631953,1.76581 3.464425,3.25859 5.768274,4.12874 0.905679,0.29347 1.772362,0.43902 2.68101,0.0556 z" />
    <path
       style="fill:#1c1079;stroke-width:0.310999"
       id="path45"
       d="m 82.645151,160.61147 c 1.373878,-0.001 2.368756,-0.8907 3.247649,-1.84373 1.077947,-1.14258 1.756331,-2.53926 2.264098,-4.00794 0.448241,-1.3262 0.618675,-2.72296 0.587724,-4.11714 -0.07434,-1.53055 -0.479631,-2.98235 -1.061831,-4.3894 -0.675592,-1.47724 -1.461008,-2.90079 -2.249183,-4.32002 -1.044297,-1.89318 -2.051627,-3.80764 -3.141041,-5.6754 -1.126924,-1.76258 -1.935615,-3.68319 -2.579555,-5.66622 -0.577265,-1.98006 -0.750038,-4.04557 -0.738206,-6.09941 0.09522,-2.30236 0.47498,-4.3951 1.379355,-6.51818 0.993362,-2.22249 2.805562,-3.73054 4.844023,-4.95474 2.057805,-1.09427 4.27926,-1.81506 6.479149,-2.55851 0.736724,-0.24623 1.487675,-0.44075 2.244299,-0.61349 0.296817,-0.0678 0.631441,-0.10165 0.908396,-0.23424 -1.068345,-0.69849 -2.090864,-1.47268 -3.205038,-2.09547 -0.100407,-0.0561 -0.214423,0.0834 -0.322059,0.12393 -0.914169,0.34459 -1.708605,0.71778 -2.52201,1.26757 -1.96156,1.49955 -2.88027,3.08124 -3.662553,5.38198 -0.753023,2.4145 -0.608465,4.88643 -0.01775,7.30911 0.646258,2.40552 1.889339,4.55066 3.255769,6.6078 1.483432,1.99402 3.125084,3.85923 4.556535,5.89268 1.280814,2.01799 2.357308,4.16183 3.332271,6.34209 0.944118,2.17477 1.705663,4.41753 2.362052,6.69342 0.600546,2.01258 0.824328,4.08639 0.786956,6.1778 -0.06371,1.98675 -0.71333,3.50869 -1.876396,5.08361 -1.013143,1.28285 -2.442274,2.02071 -3.928261,2.61858 -1.484207,0.48358 -3.011347,0.84293 -4.563078,1.01382 -1.348066,0.12954 -2.68763,-0.10369 -4.004461,-0.365 -1.002205,-0.17998 -1.976395,-0.48548 -2.943278,-0.79862 -0.177988,-0.0774 -0.571288,-0.24326 -0.750144,-0.33991 -0.109368,-0.0591 -0.425884,-0.25658 -0.317865,-0.19505 5.388136,3.06931 3.805566,2.27305 2.714321,1.52665 -0.06164,-0.0365 -0.123272,-0.0729 -0.184907,-0.10936 0,0 -3.545239,-1.41183 -3.545239,-1.41183 v 0 c 0.01521,0.0217 0.03044,0.0435 0.04566,0.0653 1.569495,1.17275 3.295986,2.17799 5.132586,2.8627 0.964869,0.30684 1.947717,0.56488 2.945172,0.74126 1.332968,0.25037 2.696863,0.41674 4.051636,0.24839 1.569966,-0.22026 3.125375,-0.56011 4.618447,-1.10144 1.532729,-0.65667 2.986159,-1.45963 4.015576,-2.81495 1.13333,-1.62885 1.89205,-3.2828 1.95285,-5.30488 0.0215,-2.13387 -0.19027,-4.25043 -0.79385,-6.30718 -0.69585,-2.29136 -1.44065,-4.56717 -2.401351,-6.76456 -0.975251,-2.21017 -2.088009,-4.35916 -3.3441,-6.42325 -1.419418,-2.05308 -3.059396,-3.92715 -4.585311,-5.89904 -1.377876,-2.01256 -2.639849,-4.12283 -3.298841,-6.49278 -0.634434,-2.35542 -0.821587,-4.76764 -0.09802,-7.13575 0.749551,-2.18658 1.667343,-3.77856 3.5853,-5.14776 0.670645,-0.40728 1.296937,-0.72625 2.042673,-0.97157 0.166137,-0.0547 0.332695,-0.10877 0.502018,-0.15257 0.110577,-0.0286 0.42473,0.008 0.336558,-0.0643 -0.947153,-0.77991 -2.001155,-1.42016 -3.001735,-2.13024 -0.931145,0.43087 -2.034789,0.47746 -2.963339,0.9273 -2.192461,0.78735 -4.414673,1.53425 -6.465501,2.65569 -2.089647,1.27428 -3.914327,2.87183 -4.949994,5.14353 -0.154831,0.35905 -0.330806,0.70971 -0.464489,1.07716 -0.649229,1.7845 -0.82246,3.68498 -0.980363,5.56184 -0.02896,2.08731 0.142414,4.1786 0.69075,6.20066 0.641948,2.0092 1.435018,3.96389 2.573824,5.74884 1.122088,1.85962 2.135262,3.78196 3.182763,5.68407 0.798232,1.42317 1.582298,2.85442 2.313718,4.3134 0.640678,1.38783 1.097108,2.83616 1.279136,4.35982 0.08558,1.39881 0.01937,2.81048 -0.234373,4.19061 -0.372378,1.47604 -0.967407,2.87132 -1.874457,4.1043 -0.783733,0.97822 -1.388015,1.80045 -2.704825,2.01811 z" />
    <path
       style="fill:#1c1079;stroke-width:0.310999"
       id="path46"
       d="m 80.582978,160.98343 c -0.515967,1.13719 -1.103638,2.24195 -1.677188,3.35118 -0.831615,1.45542 -1.307206,3.03798 -1.478302,4.69799 -0.167356,1.73012 0.362694,3.33803 1.279451,4.78118 1.339734,1.43412 3.122856,2.7421 5.089822,3.07207 0.447188,0.075 0.892521,0.0761 1.343638,0.0918 1.220886,-0.054 2.342724,-0.59185 3.345247,-1.25708 0.982948,-0.67307 1.604301,-1.6571 2.000821,-2.75843 0.348697,-1.15423 0.337928,-2.33581 0.171939,-3.51671 -0.16102,-1.05173 -0.556805,-1.99967 -1.148781,-2.87502 -0.761738,-1.04192 -1.669095,-1.9668 -2.565926,-2.8914 -0.59699,-0.54862 -1.200655,-1.10167 -1.86653,-1.56707 -5.646473,-4.20402 -3.317044,-1.56743 -1.907119,-0.58517 0,0 0.179353,0.0773 0.179353,0.0773 v 0 c 1.401871,0.61523 3.635714,3.13434 -1.7521,-0.83042 0.731727,0.33767 1.277623,1.01929 1.923153,1.48474 0.934165,0.93108 1.866771,1.86683 2.707815,2.88457 0.608113,0.84415 1.083828,1.74481 1.292844,2.77588 0.261858,1.12698 0.273206,2.28259 0.0065,3.41334 -0.321945,1.04564 -0.87086,1.98632 -1.779847,2.63157 -0.959575,0.61494 -2.004718,1.12568 -3.168705,1.13502 -0.489138,-0.028 -0.806474,-0.0252 -1.288725,-0.13953 -0.209738,-0.0497 -0.79049,-0.32399 -0.615624,-0.19795 0.648509,0.46744 1.363816,0.83472 2.055381,1.23572 0.21795,0.12638 -0.436732,-0.25476 -0.633963,-0.41152 -0.20175,-0.16035 -0.371742,-0.35703 -0.557612,-0.53554 -0.982932,-1.35787 -1.543711,-2.94242 -1.459547,-4.63743 0.114347,-1.64899 0.52711,-3.21682 1.216027,-4.72327 0.517777,-1.17857 1.089668,-2.37481 1.225603,-3.66986 z" />
    <path
       style="fill:#1c1079;stroke-width:0.310999"
       id="path47"
       d="m 64.180923,138.75386 c 1.277702,2.85414 2.383546,5.7845 3.362764,8.75377 0.394494,1.34682 0.801836,2.68964 1.121312,4.05662 0.222062,1.06204 0.06227,0.48896 2.650273,1.32683 0.101431,0.0328 0.0671,-0.2024 0.100034,-0.3038 0.126084,-0.38822 0.245734,-0.77139 0.395163,-1.15158 0.450453,-0.93372 0.964515,-1.83512 1.491697,-2.72803 0.570188,-0.95552 1.252204,-1.81666 2.133304,-2.49884 0.774525,-0.54323 1.639194,-0.77925 2.561018,-0.91712 0.971717,-0.01 1.921828,0.25276 2.845311,0.53322 0.904367,0.33532 1.747411,0.80273 2.616647,1.21431 1.459037,0.80133 -1.227458,-0.71227 -1.851075,-1.05057 -0.114745,-0.0623 0.215881,0.14684 0.322728,0.22184 0.343191,0.24091 0.668364,0.49828 0.991539,0.76519 0.513403,0.44201 1.005716,0.90758 1.485381,1.38574 0.761098,0.9227 2.144477,2.62988 3.277262,1.82382 0.344186,-0.36377 0.272658,-0.91581 0.275402,-1.37777 0.03591,-0.97577 -0.06148,-1.94516 -0.260474,-2.8994 -0.192019,-1.11315 -0.586489,-2.18513 -1.115095,-3.18013 -0.716375,-1.18908 -1.525484,-2.31688 -2.273395,-3.4857 -0.651293,-0.97556 -1.252765,-1.98308 -1.91303,-2.95268 -0.524492,-0.72927 -0.925153,-1.53609 -1.358151,-2.32106 -0.48295,-0.80788 -0.895395,-1.65271 -1.265529,-2.51721 -0.475967,-1.05995 -0.911137,-2.13977 -1.423008,-3.18311 -0.541436,-0.99628 -1.22686,-1.90735 -1.905246,-2.81351 -1.117889,-1.43911 -3.364058,-3.00355 -4.986166,-3.11848 -0.940961,-0.04 -1.496285,0.54095 -1.90696,1.31577 -0.420564,1.07404 -0.21013,2.17634 0.04559,3.25839 0.244692,0.85314 0.539065,1.68907 0.737388,2.55492 0.151773,0.0176 -0.02878,0.51707 0.08757,0.48635 0.02815,-0.007 0.07424,-0.2838 0.07744,-0.28216 0.986962,0.50443 1.92518,1.09904 2.887769,1.64856 -0.364694,-0.52237 -0.672714,-1.08593 -1.006152,-1.63025 -0.581451,-0.82828 -1.048539,-1.72868 -1.645616,-2.54563 -1.304322,-1.35339 -3.245863,-2.8659 -5.105688,-2.91966 -0.846191,0.16281 -1.30637,0.80112 -1.470846,1.60283 -0.09291,1.08713 0.316807,2.14488 0.739841,3.12738 0.385742,0.87602 0.851165,1.71222 1.289603,2.5619 0.768959,1.71024 0.143775,0.75085 3.408037,2.12523 -0.399933,-0.67645 -0.943239,-1.26737 -1.440976,-1.87526 -0.664572,-0.83494 -1.390623,-1.61163 -2.227268,-2.27468 -1.650097,-1.09991 -3.211105,-2.58247 -5.260985,-2.51025 -0.856726,0.19305 -1.28088,1.12873 -1.64496,1.8558 -0.347935,0.72021 -0.446926,1.45899 -0.378899,2.24607 0.138676,0.93092 0.547949,1.73168 1.082646,2.49133 0.719841,0.8751 1.478298,1.70902 2.159725,2.61622 0.693084,0.88882 1.322842,1.8218 1.822595,2.83257 0.469408,0.93432 0.816105,1.91904 1.153512,2.90593 0.273831,0.95247 0.562949,1.89913 0.875308,2.83996 0.25373,0.85675 0.579969,1.68843 0.887712,2.52637 0.282072,0.70181 0.623612,1.37659 0.973862,2.04612 0.234754,0.5559 0.565872,1.04515 0.915421,1.53113 0.860891,1.06306 2.068674,1.36349 3.398237,2.10735 0.176699,0.0989 0.311706,0.08 0.452239,-0.0353 0.216694,-0.51679 0.03508,-1.10912 0.05735,-1.66215 0.04165,-0.92247 0.394835,-1.75677 0.814163,-2.5626 0.512738,-0.98563 1.041159,-1.90152 1.968015,-2.54388 0.709885,-0.5132 1.464077,-0.89394 2.312951,-1.1062 0.111059,-0.0457 0.280323,-0.0292 0.333179,-0.13707 0.142687,-0.29109 -0.492845,-0.7609 -0.665512,-1.09043 -0.0465,-0.0888 0.02777,-0.19844 0.04166,-0.29767 0,0 -0.312449,-0.17576 -0.312449,-0.17576 v 0 c -0.05809,0.0655 -0.08749,0.20827 -0.174268,0.19656 -0.682218,-0.0921 -1.284227,-0.69284 -1.996824,-0.40564 -0.882872,0.23629 -1.662901,0.66355 -2.400585,1.20266 -0.920105,0.71603 -1.485284,1.66607 -2.035972,2.6789 -0.458062,0.83771 -0.82409,1.70973 -0.907552,2.67298 -0.01159,0.11354 -0.05904,1.28331 0.02336,1.35145 0.02339,0.0193 0.04711,-0.0383 0.07066,-0.0575 0.0055,-0.1081 -0.364975,-0.23275 -0.271905,-0.17749 4.913874,2.91731 3.405095,2.10858 2.454209,1.40741 -0.359304,-0.47814 -0.748218,-0.92512 -0.955289,-1.49963 -0.375107,-0.64823 -0.687559,-1.32724 -1.004167,-2.00498 -0.316196,-0.83502 -0.649021,-1.66276 -0.90601,-2.51878 -0.300789,-0.94699 -0.635569,-1.88245 -0.880878,-2.84628 -0.330073,-1.00182 -0.674105,-2.00512 -1.148188,-2.9486 -0.479711,-1.04213 -1.097727,-2.0053 -1.815243,-2.90116 -0.671552,-0.90877 -1.374725,-1.77876 -2.145078,-2.60625 -0.533146,-0.70413 -0.973841,-1.43921 -1.137491,-2.32172 -0.0948,-0.72989 -0.04026,-1.40186 0.283379,-2.07874 0.311944,-0.63339 0.6432,-1.47626 1.442199,-1.53484 0.320085,0.0192 0.428739,0.006 0.737402,0.10275 0.127929,0.0401 0.486952,0.22101 0.373028,0.15035 -4.620707,-2.86603 -2.736932,-1.62803 -1.732174,-0.9868 0.876776,0.61073 1.607822,1.37581 2.278274,2.20548 0.474207,0.58402 0.931923,1.18054 1.407747,1.76238 3.759248,1.88545 3.588147,2.50225 2.806587,0.70187 -0.424551,-0.86217 -0.954374,-1.67349 -1.326531,-2.56274 -0.431917,-0.91406 -0.828196,-1.9116 -0.808027,-2.93628 0.09333,-0.66929 0.490823,-1.1703 1.213093,-1.16455 1.196877,0.23061 2.616616,1.34041 -1.833676,-1.28307 -0.126045,-0.0743 0.255079,0.14374 0.378299,0.22265 0.470651,0.30139 0.349895,0.22208 0.727987,0.62473 0.653937,0.7726 1.07056,1.69152 1.662391,2.50921 0.326596,0.53713 0.660487,1.0709 0.933791,1.63589 1.029499,0.61977 2.92141,2.64978 3.277171,1.50199 0.04687,-0.1512 -0.136191,-0.36767 -0.101896,-0.51785 -0.202978,-0.87906 -0.523965,-1.72144 -0.788143,-2.58305 -0.245087,-1.00149 -0.506019,-2.02385 -0.153252,-3.0358 0.389027,-0.68223 0.860848,-1.09052 1.689192,-0.96661 1.305589,0.33514 0.348515,0.12401 -2.170856,-1.40159 -0.119422,-0.0723 0.253855,0.11787 0.37261,0.19128 0.412322,0.25488 0.739908,0.6122 1.033635,0.99265 0.690292,0.89272 1.368938,1.80313 1.95312,2.76859 0.536262,1.02853 0.955727,2.10985 1.436568,3.1643 0.36612,0.87939 0.761857,1.74241 1.264203,2.55377 0.437422,0.79999 0.866137,1.60988 1.368414,2.37022 0.73001,0.94862 1.319268,1.99828 2.008878,2.97611 0.767908,1.17242 1.579555,2.31243 2.334279,3.49376 0.584885,0.95096 0.981318,2.02205 1.203026,3.11608 0.203308,0.93181 0.357743,1.87984 0.291817,2.83659 -0.0092,0.26272 0.07589,0.85287 -0.137798,1.04799 -0.941988,-0.4438 -0.02159,-0.0119 2.508157,1.46945 0.01632,0.01 -0.0352,-0.0145 -0.05091,-0.025 -0.05708,-0.0382 -0.152988,-0.12423 -0.18896,-0.17234 -0.04673,-0.0625 -0.08151,-0.1331 -0.122262,-0.19965 -0.495006,-0.48276 -0.985943,-0.97068 -1.511112,-1.42108 -1.390695,-1.2102 -2.990908,-2.14555 -4.645739,-2.96106 -0.852347,-0.41884 -1.704129,-0.84828 -2.609313,-1.14368 -0.942012,-0.25383 -1.900195,-0.51487 -2.885046,-0.40218 -0.946883,0.16185 -1.845918,0.46752 -2.613845,1.06487 -0.865992,0.7395 -1.57203,1.62329 -2.139288,2.61233 -0.541806,0.90343 -1.044046,1.83024 -1.519378,2.76943 -0.729964,2.0051 -0.891916,1.24556 1.963494,2.847 0.04512,0.0253 -0.056,-0.087 -0.084,-0.1305 -0.458157,-1.37703 -0.816369,-2.7886 -1.303406,-4.15715 -1.019506,-2.96077 -2.198558,-5.86062 -3.348688,-8.77237 z" />
  </g>
</svg>
